<svg id="Camada_1" data-name="Camada 1" xmlns="http://www.w3.org/2000/svg" viewBox="0 0 100 47.86"><defs><style>.cls-1{fill:#c62668;}.cls-2{fill:#8ac0b3;}.cls-3{fill:#f5f5f5;}</style></defs><title>Logo (branco)</title><path class="cls-1" d="M146,302.36l-4.74-7.84h-4.72v13.26h4.72v-5.24l2,3.57.32.6.13.21h4.69l.1-.21,2.3-4.17v5.24h4.69V294.52h-4.69Zm82.94-7.84v9.87l-5.42-9.87h-4.72v13.26h4.72v-4.72l2.59,4.72h7.52V294.52Zm-21,0a9.31,9.31,0,0,0-8.45,13.26h5.71a4.81,4.81,0,1,1,5.46,0h5.71a9.31,9.31,0,0,0-8.43-13.26m-50.28,13.26h4.69V294.52h-4.69Zm6.91,0h4.69V294.52h-4.69Zm27.65,0h4.7V294.52h-4.7Zm-13.89,0H183V294.52h-4.69Z" transform="translate(-135.78 -266.37)"/><path class="cls-1" d="M218,312.94h4.72v-5.15H218Zm-26.59,0h4.69v-5.15h-4.69Zm-9.2-5.16h-4.69v5.16H189.5v-4.43h-7.25Zm-46.47,5.16h4.72v-5.15h-4.72Zm71.39-4.3a4.79,4.79,0,0,1-2.74-.86h-5.72a9.33,9.33,0,0,0,16.89,0h-5.71a4.75,4.75,0,0,1-2.72.86m18.18-.86,2.83,5.16h4.69v-5.16ZM150,312.94h4.7v-5.15H150Zm18.51-5.16H163.8v5.16h11.94v-4.43h-7.25Zm-11.6,5.16h4.69v-5.15h-4.69Z" transform="translate(-135.78 -266.37)"/><path class="cls-2" d="M209,295.59a9.33,9.33,0,0,0-8.46,13.27h5.72a4.8,4.8,0,1,1,5.46,0h5.71A9.33,9.33,0,0,0,209,295.59m-61.93,7.84-4.74-7.84h-4.72v13.27h4.72v-5.24l2,3.57.31.6.13.21h4.7l.1-.21,2.29-4.17v5.24h4.69V295.59h-4.69ZM230,295.59v9.88l-5.43-9.88h-4.71v13.27h4.71v-4.72l2.6,4.72h7.52V295.59Zm-50.62,13.27h4.69V295.59h-4.69Zm13.89,0H198V295.59H193.3Zm-27.65,0h4.69V295.59h-4.69Zm-6.91,0h4.69V295.59h-4.69Z" transform="translate(-135.78 -266.37)"/><path class="cls-2" d="M219.15,314h4.72v-5.16h-4.72Zm-26.58,0h4.69v-5.16h-4.69Zm15.72-4.3a4.79,4.79,0,0,1-2.74-.86h-5.72a9.32,9.32,0,0,0,16.88,0H211a4.78,4.78,0,0,1-2.72.86M136.9,314h4.71v-5.16H136.9ZM158,314h4.69v-5.16H158Zm68.45-5.16,2.83,5.16H234v-5.16Zm-43.09,0h-4.69V314h11.93v-4.43h-7.24ZM151.1,314h4.69v-5.16H151.1Zm18.51-5.16h-4.69V314h11.93v-4.43h-7.24Z" transform="translate(-135.78 -266.37)"/><path class="cls-1" d="M233.51,266.44H227l-5.69,9v-9h-5.89v15.13h5.89v-1.33l.81,1.33h6.7l-2.18-3.68Zm-40,11.65a11.46,11.46,0,0,0,.53,3.48h6.25a6,6,0,0,1,4.9-9.54,6.13,6.13,0,0,1,4.28,1.77l4-4a11.68,11.68,0,0,0-20,8.28m-14-11.43-4.94,14.91h16.28l-4.92-14.91Zm1.15,13.45,2.06-6.47,2.06,6.47Zm-28.83-2.65a6.6,6.6,0,0,0-4.88-11.06h-10.5v15.17h5.4v-1.65h1c4.35,0,4.45,0,4.65,0a2.36,2.36,0,0,1,1.83,1.62h5.2a6.67,6.67,0,0,0-2.68-4.11m-4.35-1.86a2.08,2.08,0,0,1-1.38.46h-4.25v-4.91h4.25a2.41,2.41,0,0,1,2.39,2.42,2.49,2.49,0,0,1-1,2m9.13,6h5.89V266.44h-5.89Z" transform="translate(-135.78 -266.37)"/><path class="cls-1" d="M150.12,281.57a2.49,2.49,0,0,1-2.22,3.31h-5.23v-3.31h-5.4v8.05h11.55a6.68,6.68,0,0,0,6.64-6.68,6.84,6.84,0,0,0-.14-1.37Zm79.48,0h-6.7l4.91,8.05h6.55Zm-54.19,0-2.67,8.05h5.73l1.47-4.68h7.17l1.5,4.68h5.69l-2.65-8.05Zm-12.09,0h-5.89v8.05h15v-5.56h-9.09ZM206,284.16a6,6,0,0,1-4.93-2.59h-6.24a11.71,11.71,0,0,0,10.12,8.2H207a11.71,11.71,0,0,0,7.24-3.39l-4-4a6.13,6.13,0,0,1-4.28,1.77m10.24,5.46h5.89v-8.05h-5.89Z" transform="translate(-135.78 -266.37)"/><path class="cls-2" d="M194.88,279.37a11.46,11.46,0,0,0,.53,3.48h6.26a6,6,0,0,1-1.13-3.48,6.05,6.05,0,0,1,6-6.06,6.17,6.17,0,0,1,4.29,1.77l4-4a11.68,11.68,0,0,0-20,8.28m40.05-11.65h-6.54l-5.7,9v-9H216.8v15.13h5.89v-1.32l.81,1.32h6.7L228,279.17Zm-81.71,11a6.6,6.6,0,0,0-4.87-11.06H137.84v15.16h5.4V281.2h1c4.35,0,4.45,0,4.65,0a2.36,2.36,0,0,1,1.83,1.62h5.2a6.62,6.62,0,0,0-2.68-4.1m-4.35-1.87a2.08,2.08,0,0,1-1.38.46h-4.25v-4.91h4.25a2.41,2.41,0,0,1,2.39,2.42,2.49,2.49,0,0,1-1,2m32-8.93L176,282.85h16.27L187.32,268Zm1.14,13.45,2.06-6.48,2.06,6.48ZM158,282.85h5.89V267.72H158Z" transform="translate(-135.78 -266.37)"/><path class="cls-2" d="M176.83,282.85l-2.67,8h5.73l1.47-4.68h7.17l1.5,4.68h5.7l-2.66-8Zm-25.29,0a2.48,2.48,0,0,1,.14.82,2.45,2.45,0,0,1-2.36,2.49h-5.23v-3.31h-5.4v8h11.55a6.67,6.67,0,0,0,6.64-6.67,6.87,6.87,0,0,0-.14-1.38Zm79.48,0h-6.7l4.91,8h6.55Zm-66.28,0h-5.89v8h15v-5.56h-9.09Zm52.91,8h5.89v-8h-5.89Zm-10.24-5.46a6,6,0,0,1-4.93-2.59h-6.24a11.71,11.71,0,0,0,10.13,8.2h2.09a11.66,11.66,0,0,0,7.23-3.39l-4-4a6.13,6.13,0,0,1-4.28,1.77" transform="translate(-135.78 -266.37)"/><path class="cls-3" d="M194.16,278.89a11.78,11.78,0,0,0,.53,3.48H201a6,6,0,0,1-1.13-3.48,6.06,6.06,0,0,1,6-6.06,6.15,6.15,0,0,1,4.29,1.77l4-4a11.68,11.68,0,0,0-20,8.28m40.05-11.65h-6.54l-5.69,9v-9h-5.89v15.13H222v-1.32l.8,1.32h6.7l-2.17-3.68Zm-81.71,11a6.6,6.6,0,0,0-4.87-11.06h-10.5v15.16h5.39v-1.65h1c4.35,0,4.45,0,4.64,0a2.36,2.36,0,0,1,1.84,1.62h5.2a6.67,6.67,0,0,0-2.69-4.1m-4.35-1.87a2.06,2.06,0,0,1-1.37.46h-4.26V272h4.26a2.41,2.41,0,0,1,2.39,2.42,2.5,2.5,0,0,1-1,2m32-8.93-4.94,14.9h16.27l-4.92-14.9Zm1.15,13.45,2.06-6.48,2.06,6.48Zm-24.06,1.45h5.89V267.24h-5.89Z" transform="translate(-135.78 -266.37)"/><path class="cls-3" d="M150.82,282.37a2.48,2.48,0,0,1,.14.82,2.44,2.44,0,0,1-2.35,2.49h-5.24v-3.31H138v8.05h11.55a6.67,6.67,0,0,0,6.65-6.67,6.21,6.21,0,0,0-.15-1.38Zm79.48,0h-6.7l4.92,8.05h6.54Zm-54.18,0-2.67,8.05h5.72l1.48-4.68h7.16l1.51,4.68H195l-2.66-8.05ZM206.69,285a6,6,0,0,1-4.93-2.59h-6.23a11.71,11.71,0,0,0,10.12,8.2h2.09a11.61,11.61,0,0,0,7.23-3.39l-4-4a6.15,6.15,0,0,1-4.29,1.77m10.24,5.46h5.89v-8.05h-5.89ZM164,282.37h-5.89v8.05h15v-5.56H164Z" transform="translate(-135.78 -266.37)"/><path class="cls-3" d="M208.51,295a9.33,9.33,0,0,0-8.45,13.27h5.72a4.81,4.81,0,1,1,5.45,0h5.71A9.32,9.32,0,0,0,208.51,295m21,0v9.88L224.1,295h-4.72V308.3h4.72v-4.72l2.59,4.72h7.52V295ZM158.24,308.3h4.69V295h-4.69Zm-11.65-5.43L141.84,295h-4.71V308.3h4.71v-5.24l2,3.57.31.6.13.21h4.69l.11-.21,2.29-4.17v5.24H156V295h-4.69Zm46.21,5.43h4.69V295H192.8Zm-13.89,0h4.69V295h-4.69Zm-13.77,0h4.7V295h-4.7Z" transform="translate(-135.78 -266.37)"/><path class="cls-3" d="M192.07,313.46h4.69V308.3h-4.69Zm15.71-4.3a4.82,4.82,0,0,1-2.74-.86h-5.71a9.32,9.32,0,0,0,16.88,0H210.5a4.73,4.73,0,0,1-2.72.86m10.87,4.3h4.72V308.3h-4.72Zm-82.26,0h4.72V308.3h-4.72ZM226,308.3l2.83,5.16h4.69V308.3Zm-43.09,0h-4.7v5.16h11.94V309h-7.24Zm-32.27,5.16h4.69V308.3H150.6Zm6.91,0h4.69V308.3h-4.69Zm11.59-5.16h-4.69v5.16h11.94V309H169.1Z" transform="translate(-135.78 -266.37)"/></svg>