<svg xmlns="http://www.w3.org/2000/svg" id="Capa_1" height="512" viewBox="0 0 512 512" width="512"><path d="m358.96 383.39c-7.2-25.06-30.3-43.39-57.67-43.39h-24.88c-4.21 0-8.25-.74-11.99-2.1h-106.27c-3.8 1.38-7.85 2.1-11.98 2.1h-24.88c-33.14 0-60 26.86-60 60v72h300z" fill="#bfdbff"></path><path d="m443.5 382c22.03 0 37.21 18.49 37.21 40.39 0 30.07-29.3 40.5-74.42 79.61-44.189-38.291-74.42-49.328-74.42-79.61 0-22.098 15.341-40.39 37.21-40.39 28.28 0 37.21 32.25 37.21 32.25s8.93-32.25 37.21-32.25z" fill="#ff7b79"></path><path d="m146.17 340h-24.88c-49.71 0-90-40.29-90-90v-60c0-99.41 80.597-180 180-180 99.41 0 180 80.59 180 180v60c0 49.71-40.29 90-90 90h-24.88c-19.353 0-35.12-15.68-35.12-35.12 34.96-12.36 60-45.69 60-84.88 16.57 0 30-13.43 30-30s-13.43-30-30-30h-30c-33.14 0-60-26.86-60-60 0 33.14-26.86 60-60 60h-30c-16.57 0-30 13.43-30 30s13.43 30 30 30c0 39.19 25.04 72.52 60 84.88 0 19.352-15.682 35.12-35.12 35.12z" fill="#8690af"></path><path d="m301.29 160c16.57 0 30 13.43 30 30s-13.43 30-30 30c0 39.19-25.04 72.52-60 84.88 0 15.19 9.64 28.12 23.13 33.02-10.04 19.09-30.07 32.1-53.13 32.1-23.07 0-43.08-13.02-53.14-32.1 4.79-1.74 9.18-4.51 12.85-8.18 6.59-6.59 10.29-15.52 10.29-24.84-34.96-12.36-60-45.69-60-84.88-16.57 0-30-13.43-30-30s13.43-30 30-30h30c33.14 0 60-26.86 60-60 0 33.14 26.86 60 60 60z" fill="#fed2a4"></path><path d="m443.5 372c-18.281 0-30.042 10.08-37.21 20.073-7.168-9.993-18.929-20.073-37.21-20.073-1.198 0-2.387.052-3.568.139-5.384-12.369-14.212-22.743-25.117-30.105 35.763-15.253 60.896-50.763 60.896-92.034v-60c0-104.767-85.233-190-190-190-105.018 0-190 84.998-190 190v60c0 41.249 25.105 76.742 60.837 92.008-18.594 12.597-30.838 33.891-30.838 57.992v72c0 5.522 4.477 10 10 10h105c5.523 0 10-4.478 10-10s-4.477-10-10-10h-95v-62c0-27.57 22.43-50 50-50h24.88c2.447 0 4.871-.204 7.26-.592 12.972 19.044 34.484 30.592 57.86 30.592 23.394 0 44.904-11.547 57.857-30.591 2.389.387 4.814.591 7.264.591h24.88c19.223 0 36.622 11.17 44.903 28.002-14.881 8.511-24.323 25.184-24.323 44.387 0 16.934 7.97 29.065 18.88 39.61h-84.46c-5.522 0-10 4.478-10 10s4.478 10 10 10h105c1.123 0 2.198-.193 3.205-.534 12.21 9.289 22.879 17.375 35.246 28.092 1.88 1.628 4.214 2.442 6.549 2.442s4.671-.814 6.55-2.443c45.055-39.055 77.87-51.322 77.87-87.167-.001-28.255-20.738-50.389-47.211-50.389zm-232.21-12c-15.255 0-29.401-6.891-38.803-18.459 11.457-8.242 18.803-21.577 18.803-36.661 0-4.238-2.671-8.016-6.667-9.428-31.9-11.279-53.333-41.601-53.333-75.452 0-5.522-4.477-10-10-10-11.028 0-20-8.972-20-20s8.972-20 20-20h30c25.431 0 47.74-13.635 60-33.976 12.26 20.341 34.568 33.976 60 33.976h30c11.028 0 20 8.972 20 20s-8.972 20-20 20c-5.522 0-10 4.478-10 10 0 33.852-21.433 64.173-53.333 75.452-3.996 1.412-6.667 5.189-6.667 9.428 0 14.719 7.232 28.305 18.815 36.651-9.388 11.575-23.54 18.469-38.815 18.469zm40.841-48.693c33.02-14.779 55.573-46.462 58.769-82.474 17.43-4.313 30.391-20.089 30.391-38.833 0-22.056-17.944-40-40-40h-30c-27.57 0-50-22.43-50-50 0-5.522-4.477-10-10-10s-10 4.478-10 10c0 27.57-22.43 50-50 50h-30c-22.056 0-40 17.944-40 40 0 18.744 12.961 34.52 30.391 38.833 3.195 36.017 25.756 67.703 58.782 82.48-2.785 10.585-12.479 18.687-24.294 18.687h-24.88c-44.112 0-80-35.888-80-80v-60c0-93.962 76.05-170 170-170 93.738 0 170 76.262 170 170v60c0 44.112-35.888 80-80 80h-24.88c-11.736 0-21.428-7.987-24.279-18.693zm154.154 177.562c-39.702-33.163-64.415-43.573-64.415-66.479 0-14.195 7.968-26.003 19.845-29.387.002 0 .004-.001.006-.001.001 0 .002 0 .002-.001 2.316-.664 4.791-1 7.356-1 20.2 0 27.292 23.941 27.572 24.919 1.2 4.332 5.143 7.331 9.638 7.331s8.438-2.999 9.638-7.331c.068-.25 7.136-24.919 27.572-24.919 15.513 0 27.21 13.064 27.21 30.39.001 22.736-23.495 32.22-64.424 66.478z"></path><path d="m251.29 220c0-5.522-4.478-10-10-10s-10 4.478-10 10c0 11.028-8.972 20-20 20s-20-8.972-20-20c0-5.522-4.477-10-10-10s-10 4.478-10 10c0 22.056 17.944 40 40 40s40-17.944 40-40z"></path><circle cx="211.29" cy="472" r="10"></circle></svg>