<svg xmlns="http://www.w3.org/2000/svg" id="Capa_1" height="512" viewBox="0 0 512 512" width="512"><path d="m23.663 48.411h464.675v317.191h-464.675z" fill="#e4f6ff"></path><path d="m473.185 48.411v291.937c0 5.579-4.523 10.102-10.102 10.102h-439.42v15.152h464.675v-317.191z" fill="#d3effb"></path><path d="m7.5 365.602h497v30.305h-497z" fill="#c6865c"></path><path d="m490.358 365.602v20.203 10.102h14.142v-30.305z" fill="#b16e3d"></path><path d="m201.956 434.798h108.087v30.305h-108.087z" fill="#b16e3d" transform="matrix(0 1 -1 0 705.951 193.951)"></path><path d="m240.848 395.907h30.305v30.305h-30.305z" fill="#985e33"></path><path d="m356.006 503.994-31.315-108.087h30.305l31.315 108.087z" fill="#b16e3d"></path><path d="m363.776 426.212-8.78-30.305h-30.305l8.78 30.305z" fill="#985e33"></path><path d="m155.994 503.994 31.315-108.087h-30.305l-31.315 108.087z" fill="#b16e3d"></path><path d="m148.224 426.212 8.78-30.305h30.305l-8.78 30.305z" fill="#985e33"></path><path d="m235.797 13.056h40.407v30.305h-40.407z" fill="#c6865c" transform="matrix(0 1 -1 0 284.209 -227.791)"></path><path d="m70.13 82.757h151.524v101.016h-151.524z" fill="#f4dd45"></path><path d="m70.13 230.24h151.524v101.016h-151.524z" fill="#a2f4c1"></path><path d="m290.346 82.757h151.524v101.016h-151.524z" fill="#e27a66" transform="matrix(-1 0 0 -1 732.216 266.53)"></path><path d="m290.346 230.24h151.524v101.016h-151.524z" fill="#90d8f9" transform="matrix(-1 0 0 -1 732.216 561.497)"></path><path d="m441.87 331.257-41.417-65.661-31.315 35.356-20.203-22.224-58.589 52.529z" fill="#aad540"></path><circle cx="323.681" cy="258.525" r="10.102"></circle><path d="m23.663 144.468c4.143 0 7.5-3.358 7.5-7.5v-81.057h449.674v161.172c0 4.142 3.357 7.5 7.5 7.5s7.5-3.358 7.5-7.5v-168.672c0-4.142-3.357-7.5-7.5-7.5h-209.685v-32.906c0-4.142-3.357-7.5-7.5-7.5h-30.305c-4.143 0-7.5 3.358-7.5 7.5v32.906h-209.684c-4.143 0-7.5 3.358-7.5 7.5v88.557c0 4.142 3.358 7.5 7.5 7.5zm224.685-128.963h15.305v25.406h-15.305z"></path><path d="m504.5 358.102h-8.663v-105.977c0-4.142-3.357-7.5-7.5-7.5s-7.5 3.358-7.5 7.5v105.978h-449.674v-186.103c0-4.142-3.357-7.5-7.5-7.5s-7.5 3.358-7.5 7.5v186.103h-8.663c-4.143 0-7.5 3.358-7.5 7.5v30.305c0 4.142 3.357 7.5 7.5 7.5h47.031c4.143 0 7.5-3.358 7.5-7.5s-3.357-7.5-7.5-7.5h-39.531v-15.305h482v15.305h-407.417c-4.143 0-7.5 3.358-7.5 7.5s3.357 7.5 7.5 7.5h57.439l-28.537 98.5c-.656 2.265-.209 4.707 1.208 6.592s3.638 2.995 5.996 2.995h30.305c3.338 0 6.274-2.207 7.204-5.413l29.746-102.674h40.403v100.587c0 4.142 3.357 7.5 7.5 7.5h30.305c4.143 0 7.5-3.358 7.5-7.5v-100.588h40.403l29.746 102.674c.93 3.207 3.866 5.413 7.204 5.413h30.305.02c4.143 0 7.5-3.358 7.5-7.5 0-.923-.166-1.807-.471-2.624l-28.382-97.964h139.523c4.143 0 7.5-3.358 7.5-7.5v-30.305c0-4.141-3.357-7.499-7.5-7.499zm-354.142 138.393h-14.688l26.969-93.087h14.688zm113.294 0h-15.305v-93.087h15.305zm112.677 0h-14.688l-26.969-93.087h14.688z"></path><path d="m229.154 82.757c0-4.142-3.357-7.5-7.5-7.5h-151.524c-4.143 0-7.5 3.358-7.5 7.5v101.016c0 4.142 3.357 7.5 7.5 7.5h151.524c4.143 0 7.5-3.358 7.5-7.5zm-15 93.516h-136.524v-86.016h136.524z"></path><path d="m136.801 120.562h54.549c4.143 0 7.5-3.358 7.5-7.5s-3.357-7.5-7.5-7.5h-54.549c-4.143 0-7.5 3.358-7.5 7.5s3.357 7.5 7.5 7.5z"></path><path d="m100.435 120.562h10.102c4.143 0 7.5-3.358 7.5-7.5s-3.357-7.5-7.5-7.5h-10.102c-4.143 0-7.5 3.358-7.5 7.5s3.357 7.5 7.5 7.5z"></path><path d="m136.801 160.968h54.549c4.143 0 7.5-3.358 7.5-7.5s-3.357-7.5-7.5-7.5h-54.549c-4.143 0-7.5 3.358-7.5 7.5s3.357 7.5 7.5 7.5z"></path><path d="m100.435 160.968h10.102c4.143 0 7.5-3.358 7.5-7.5s-3.357-7.5-7.5-7.5h-10.102c-4.143 0-7.5 3.358-7.5 7.5s3.357 7.5 7.5 7.5z"></path><path d="m221.654 222.74h-151.524c-4.143 0-7.5 3.358-7.5 7.5v101.017c0 4.142 3.357 7.5 7.5 7.5h151.524c4.143 0 7.5-3.358 7.5-7.5v-101.017c0-4.142-3.357-7.5-7.5-7.5zm-7.5 101.017h-136.524v-86.017h136.524z"></path><path d="m449.37 82.757c0-4.142-3.357-7.5-7.5-7.5h-151.524c-4.143 0-7.5 3.358-7.5 7.5v101.016c0 4.142 3.357 7.5 7.5 7.5h151.524c4.143 0 7.5-3.358 7.5-7.5zm-15 93.516h-136.524v-86.016h136.524z"></path><path d="m441.87 222.74h-151.524c-4.143 0-7.5 3.358-7.5 7.5v101.017c0 4.142 3.357 7.5 7.5 7.5h151.524c4.143 0 7.5-3.358 7.5-7.5v-101.017c0-4.142-3.357-7.5-7.5-7.5zm-7.5 15v67.568l-27.573-43.713c-1.26-1.996-3.385-3.283-5.736-3.474-2.345-.185-4.656.736-6.222 2.503l-25.773 29.099-14.581-16.039c-2.773-3.051-7.488-3.29-10.557-.539l-46.082 41.316v-76.721zm-6.099 86.017h-118.325l38.449-34.473 15.193 16.712c1.422 1.564 3.438 2.455 5.55 2.455h.049c2.13-.014 4.153-.933 5.565-2.527l24.688-27.874z"></path></svg>