<svg xmlns="http://www.w3.org/2000/svg" id="Capa_1" height="512" viewBox="0 0 512 512" width="512"><g><g><circle cx="256" cy="96" fill="#ff9811" r="80"></circle><path d="m434.834 273.121c6.249 6.248 6.25 16.378.003 22.627-.001.001-.002.002-.003.003l-124.566 124.566c-2.961 2.955-6.96 4.636-11.143 4.683l-78 .589c-4.198.033-8.215 1.715-11.183 4.683l-12.654 12.663-56.128-56.834 56.471-56.481s27.956-22.006 30.378-23.215c3.201-1.597 6.738-2.392 10.314-2.356h91c7.251 0 15.44 6.187 15.719 13.72l55.922-55.922c6.237-6.241 16.353-6.244 22.593-.007l.007.007z" fill="#ffdaaa"></path><path d="m204.91 461.28-29.63 34.63-10.39-10.39-56.57-57.57-12.23-12.23 29.63-33.63z" fill="#cca400"></path><circle cx="256" cy="96" fill="#ffda44" r="56"></circle></g><g><path d="m440.49 267.46-11.28-11.27c-9.37-9.34-24.53-9.34-33.9 0l-48.52 48.51c-3.987-4.378-8.686-8.57-17.422-8.57l-90.161.06c-5.435-.046-10.809 1.186-15.657 3.644-2.823 1.431-30.89 23.526-30.89 23.526-.24.184-.468.384-.68.6l-56.53 56.54-3.881-3.881c-2.52-2.52-7.782-3.244-11.237.211-.695.695-30.242 33.6-30.242 33.6-2.79 3.169-2.641 7.96.34 10.95l79.19 80.19c3.199 3.199 7.88 3.4 11.74-.46l29.63-34.63c2.718-3.174 2.535-7.905-.42-10.86l-7.33-7.32 12.36-12.37c1.486-1.48 3.493-2.32 5.59-2.34l78.03-.59c6.273-.065 12.269-2.59 16.7-7.03l124.57-124.56c9.374-9.376 9.374-24.574 0-33.95zm-265.67 216.68-4.22-4.23-56.62-57.62-6.92-6.92 19.03-21.6 67.93 67.93zm254.36-194.05-124.56 124.56c-1.474 1.481-3.471 2.324-5.56 2.35l-77.99.59c-6.304.026-12.34 2.555-16.78 7.03l-9.62 9.62-45.17-45.16 53.47-53.48s24.969-19.617 26.551-20.616c3.071-1.941 6.64-2.955 10.273-2.919h88.899c4.013 0 8.308 3.112 8.308 7.935v16c-.006 4.416-3.584 7.994-8 8h-71.726c-4.261 0-7.981 3.215-8.257 7.467-.302 4.66 3.387 8.533 7.982 8.533h72c13.248-.018 23.982-10.752 24-24v-14.87l53.62-53.63c3.119-3.105 8.161-3.105 11.28 0l11.28 11.28c3.122 3.124 3.122 8.186 0 11.31z"></path><path d="m264 208c0-4.418-3.582-8-8-8s-8 3.582-8 8v40c0 4.418 3.582 8 8 8s8-3.582 8-8z"></path><path d="m256 264c-4.418 0-8 3.582-8 8v8c0 4.418 3.582 8 8 8s8-3.582 8-8v-8c0-4.418-3.582-8-8-8z"></path><path d="m280 200v64c0 4.418 3.582 8 8 8s8-3.582 8-8v-64c0-4.418-3.582-8-8-8s-8 3.582-8 8z"></path><path d="m216 224v32c0 4.418 3.582 8 8 8s8-3.582 8-8v-32c0-4.418-3.582-8-8-8s-8 3.582-8 8z"></path><path d="m318.23 33.77c-34.484-34.254-90.206-34.067-124.46.417-34.091 34.321-34.091 89.722 0 124.043 34.484 34.254 90.206 34.067 124.46-.417 34.091-34.321 34.091-89.722 0-124.043zm-11.32 113.14c-28.117 28.112-73.7 28.109-101.812-.008s-28.109-73.7.008-101.812 73.7-28.109 101.812.008c13.499 13.501 21.082 31.81 21.082 50.902.051 19.106-7.543 37.438-21.09 50.91z"></path><path d="m301.25 50.75c-24.991-24.978-65.499-24.968-90.477.023s-24.968 65.499.023 90.477 65.499 24.968 90.477-.023c11.991-11.997 18.727-28.265 18.727-45.227.046-16.983-6.706-33.277-18.75-45.25zm-11.31 79.19c-18.745 18.742-49.133 18.739-67.875-.005s-18.739-49.133.005-67.875 49.133-18.739 67.875.005c8.999 9 14.055 21.207 14.055 33.935.027 12.736-5.035 24.954-14.06 33.94z"></path><path d="m289.94 96c-3.124 3.122-8.186 3.122-11.31 0l-11.31-11.31h-.01v-.01l-5.65-5.65-5.66 5.66 16.97 16.97c3.122 3.124 3.122 8.186 0 11.31l-16.97 16.97c-3.124 3.122-8.186 3.122-11.31 0l-5.66-5.65c-3.126 3.126-8.194 3.126-11.32 0s-3.126-8.194 0-11.32l-5.65-5.66c-3.043-3.203-2.913-8.267.29-11.31 3.088-2.934 7.932-2.934 11.02 0l11.31 11.31h.01v.01l5.65 5.65 5.66-5.66-16.97-16.97c-3.122-3.124-3.122-8.186 0-11.31l16.97-16.97c3.124-3.122 8.186-3.122 11.31 0l5.66 5.65c3.126-3.126 8.194-3.126 11.32 0s3.126 8.194 0 11.32l5.65 5.66c3.123 3.113 3.131 8.169.018 11.292-.006.006-.012.012-.018.018z"></path></g></g></svg>