<svg xmlns="http://www.w3.org/2000/svg" id="Filled" height="512" viewBox="0 0 512 512" width="512"><circle cx="392" cy="392" fill="#ffb632" r="96"></circle><path d="m32 24h176v176h-176z" fill="#ffb632"></path><path d="m32 24h176v48h-176z" fill="#d46109"></path><path d="m152 152-28-21.333-28 21.333v-128h56z" fill="#d13330"></path><path d="m264 456a8 8 0 0 0 -8-8c-100.7 0-183.535-77.927-191.385-176.642l34.947 23.3a8 8 0 0 0 8.876-13.312l-48-32a8 8 0 0 0 -11.094 2.218l-32 48a8 8 0 1 0 13.312 8.876l18.769-28.154c12.067 103.288 100.098 183.714 206.575 183.714a8 8 0 0 0 8-8z"></path><path d="m392 288a104 104 0 1 0 104 104 104.118 104.118 0 0 0 -104-104zm0 192a88 88 0 1 1 88-88 88.1 88.1 0 0 1 -88 88z"></path><path d="m392 352.381a15.971 15.971 0 0 1 16 15.905 8 8 0 1 0 16 0 31.981 31.981 0 0 0 -24-30.9v-9.386a8 8 0 0 0 -16 0v9.39a31.9 31.9 0 0 0 8 62.8 15.905 15.905 0 1 1 -16 15.91 8 8 0 0 0 -16 0 31.979 31.979 0 0 0 24 30.894v9.006a8 8 0 0 0 16 0v-9.01a31.9 31.9 0 0 0 -8-62.8 15.9 15.9 0 1 1 0-31.809z"></path><path d="m208 208a8 8 0 0 0 8-8v-176a8 8 0 0 0 -8-8h-176a8 8 0 0 0 -8 8v176a8 8 0 0 0 8 8zm-48-176h40v32h-40zm-64 48v-48h48v105.052l-19.562-13.041a8 8 0 0 0 -8.876 0l-19.562 13.041zm-56-48h40v32h-40zm0 48h40v72a8 8 0 0 0 12.438 6.656l27.562-18.374 27.562 18.374a8 8 0 0 0 12.438-6.656v-72h40v112h-160z"></path><path d="m401.344 219.562a8 8 0 0 0 2.218 11.094l48 32a8 8 0 0 0 10.685-1.656l32-40a8 8 0 1 0 -12.494-10l-18.853 23.567c-10.761-104.66-99.444-186.567-206.9-186.567a8 8 0 0 0 0 16c100.7 0 183.535 77.927 191.385 176.642l-34.947-23.3a8 8 0 0 0 -11.094 2.22z"></path></svg>