<svg xmlns="http://www.w3.org/2000/svg" height="512" viewBox="0 0 512 512" width="512"><g id="filled_outline" data-name="filled outline"><path d="m272 304-56-16v-16h-64v16l-56 16a48 48 0 0 0 -48 48v96h272v-96a48 48 0 0 0 -48-48z" fill="#4298d1"></path><path d="m216 448h-64l-8-120 8-56v-32h64v32l8 40z" fill="#ebebeb"></path><path d="m169.889 363.777 14.111 28.223 14.111-28.223a169.443 169.443 0 0 0 17.889-75.777v-40h-64v40a169.443 169.443 0 0 0 17.889 75.777z" fill="#fad7be"></path><path d="m152 263.368a63.63 63.63 0 0 0 64 0v-15.368h-64z" fill="#eecdb6"></path><path d="m96 440-3.61-14.441a72.4 72.4 0 0 1 0-35.118l3.61-14.441v-8h-48v104a16 16 0 0 0 16 16h216z" fill="#fad7be"></path><path d="m120 320 22.857 22.857-22.857 17.143 32 80v-64-24-16-64z" fill="#cdcdcd"></path><path d="m248 320-32-48v64 16 24 64l32-80-22.857-17.143z" fill="#cdcdcd"></path><path d="m264 160h-160v-24a80 80 0 0 1 80-80 80 80 0 0 1 80 80z" fill="#f5b02e"></path><path d="m184 256a64 64 0 0 1 -64-64v-64h128v64a64 64 0 0 1 -64 64z" fill="#fad7be"></path><g fill="#e2c2ac"><circle cx="152" cy="184" r="8" fill="#e2c2ac"></circle><circle cx="216" cy="184" r="8" fill="#e2c2ac"></circle><path d="m184 239.984a30.528 30.528 0 0 1 -21.656-8.953 8 8 0 0 1 11.312-11.312 14.646 14.646 0 0 0 20.688 0 8 8 0 0 1 11.312 11.312 30.528 30.528 0 0 1 -21.656 8.953z" fill="#e2c2ac"></path></g><path d="m128 200h-16a24 24 0 0 1 -24-24 24 24 0 0 1 24-24h8z" fill="#fad7be"></path><path d="m232 200h24a24 24 0 0 0 24-24 24 24 0 0 0 -24-24h-8z" fill="#fad7be"></path><circle cx="184" cy="48" fill="#f5b02e" r="24"></circle><path d="m112 488h168l-184-48z" fill="#eeccb6"></path><path d="m272 368v8l3.61 14.441a72.4 72.4 0 0 1 0 35.118l-3.61 14.441h-96l-32-16-32 16 16 48h176a16 16 0 0 0 16-16v-104z" fill="#fad7be"></path><path d="m469.463 488h-192l-.845-1.689a16 16 0 0 1 7.156-21.466l1.689-.845v-72a80 80 0 0 1 80-80h16a80 80 0 0 1 80 80v72l1.689.845a16 16 0 0 1 7.155 21.466z" fill="#97d9a9"></path><path d="m395.939 320h-48l-8-56h64z" fill="#97d9a9"></path><path d="m371.938 320a94.585 94.585 0 0 1 -48.7-13.492l-8.879-5.328a8 8 0 1 1 8.227-13.719l8.883 5.328c24.437 14.672 56.5 14.672 80.929 0l6.09-3.648a8 8 0 1 1 8.227 13.718l-6.086 3.649a94.6 94.6 0 0 1 -48.691 13.492z" fill="#83bd93"></path><path d="m371.938 392a8 8 0 1 1 8-8h16a23.951 23.951 0 0 0 -17.012-22.841v-9.159h-16v9.789a23.98 23.98 0 0 0 9.012 46.211 8 8 0 1 1 -8 8h-16a24.009 24.009 0 0 0 14.988 22.211v9.789h16v-9.16a23.931 23.931 0 0 0 -6.988-46.84z" fill="#83bd93"></path><path d="m120 128a136.567 136.567 0 0 0 96.568 40h31.432v-16h8v-40h-136z" fill="#f5b02e"></path><path d="m184 216a7.971 7.971 0 0 1 -5.656-2.344l-8-8a8 8 0 0 1 -1.934-8.187l8-24a8 8 0 0 1 15.18 5.062l-6.438 19.305 4.5 4.508a8 8 0 0 1 -5.652 13.656z" fill="#e2c2ac"></path><path d="m478.765 471.566a23.822 23.822 0 0 0 -9.3-12.281v-67.285a88.141 88.141 0 0 0 -55.587-81.813c2.3-1.135 4.554-2.352 6.759-3.675l6.087-3.653a8 8 0 1 0 -8.233-13.718l-6.086 3.651q-2.414 1.448-4.918 2.711l4.354-30.367a8 8 0 0 0 -7.921-9.136h-64a8 8 0 0 0 -7.92 9.136l4.352 30.348q-2.481-1.257-4.878-2.691l-8.883-5.33a8 8 0 1 0 -8.232 13.719l8.883 5.331q3.974 2.383 8.145 4.354a87.887 87.887 0 0 0 -14.409 7.732q-.584-.8-1.187-1.565c-.032-.04-.063-.08-.1-.119-1.185-1.439-2.494-2.866-4.093-4.466a55.3 55.3 0 0 0 -38.441-16.437l-38.969-11.145-10.188-15.289v-9.761a71.72 71.72 0 0 0 31.549-51.817h.451a31.989 31.989 0 0 0 16-59.695v-12.305a87.965 87.965 0 0 0 -56.545-82.159 32 32 0 1 0 -62.9.026 88.089 88.089 0 0 0 -56.555 82.133v12.305a31.989 31.989 0 0 0 16 59.695h.451a71.69 71.69 0 0 0 31.549 51.824v9.754l-10.193 15.289-38.97 11.145a56.066 56.066 0 0 0 -54.837 55.988v120a24.028 24.028 0 0 0 24 24h405.463a8 8 0 0 0 7.156-4.424l.843-1.687a23.84 23.84 0 0 0 1.303-18.323zm-129.616-199.566h45.542l-4.271 29.8a78.581 78.581 0 0 1 -36.994-.008zm-79.349 39.691a7.99 7.99 0 0 0 2.2.309 39.465 39.465 0 0 1 28.263 11.737c1.229 1.229 2.194 2.276 3.032 3.289.4.509.792 1.048 1.177 1.6a88.3 88.3 0 0 0 -20.985 31.374h-11.487a8 8 0 0 0 -8 8v8a8.063 8.063 0 0 0 .236 1.931l3.6 14.49a64.462 64.462 0 0 1 0 31.168l-2.091 8.411h-37.929l27.612-69.029a8 8 0 0 0 -2.635-9.376l-15.486-11.588 16.35-16.35a8 8 0 0 0 1-10.095l-6.757-10.134zm-2.834 168.309h-133.2l-11.982-35.947 22.245-11.123 3.953 1.98a8.052 8.052 0 0 0 .965.484l23.475 11.761a7.994 7.994 0 0 0 3.578.845h95.974.032.047 5.41v11.287a24.051 24.051 0 0 0 -10.497 20.713zm-89.077-48-17.889-8.945v-61.543c.889 1.954 1.8 3.9 2.76 5.817l14.08 28.24a8 8 0 0 0 14.32 0l14.075-28.231c.962-1.923 1.875-3.869 2.765-5.826v70.488zm46.111-76.686 1.877-1.876 12.415 9.29-14.292 35.731zm0-22.627v-34.265l13.706 20.558zm-16-64.812v20.125a162.25 162.25 0 0 1 -17.08 72.19l-6.92 13.88-6.925-13.888a162.254 162.254 0 0 1 -17.075-72.182v-20.13a71.84 71.84 0 0 0 48 0zm-64 30.547v34.265l-13.706-13.707zm0 56.892v43.12l-14.292-35.706 12.416-9.29zm112-163.314v-32a16 16 0 0 1 0 32zm-72-160a16.019 16.019 0 0 1 16 16c0 .5-.031 1-.077 1.5a87.324 87.324 0 0 0 -31.846 0c-.046-.5-.077-1-.077-1.5a16.019 16.019 0 0 1 16-16zm-19.236 34.674.04-.012h.01a72.1 72.1 0 0 1 70.086 18.438 71.515 71.515 0 0 1 21.1 50.9v8h-8a8 8 0 0 0 -8 8v8h-23.44a127.716 127.716 0 0 1 -90.9-37.657 7.97 7.97 0 0 0 -12.681 1.868 72.028 72.028 0 0 1 51.785-57.537zm-68.764 109.326a16.019 16.019 0 0 1 16-16v32a16.019 16.019 0 0 1 -16-16zm32 24v-54.278a143.1 143.1 0 0 0 49.92 25.078 7.966 7.966 0 0 0 -1.509 2.666l-8 24a8 8 0 0 0 1.932 8.187l8 8a8 8 0 0 0 11.314-11.314l-4.5-4.5 6.436-19.309a7.952 7.952 0 0 0 .124-4.651 146.3 146.3 0 0 0 24.843 2.121h23.44v24a55.786 55.786 0 0 1 -28.932 48.965c-.034.019-.067.039-.1.057a55.6 55.6 0 0 1 -54-.041l-.046-.025a55.751 55.751 0 0 1 -28.922-48.956zm-32 112a7.99 7.99 0 0 0 2.2-.309l21.9-6.263-6.756 10.134a8 8 0 0 0 1 10.095l16.35 16.35-15.487 11.593a8 8 0 0 0 -2.634 9.378l22.61 56.491-26.761 13.381a7.962 7.962 0 0 0 -2.137 1.565l-3.669-.955-2.455-9.876a64.462 64.462 0 0 1 0-31.168l3.6-14.48a8.063 8.063 0 0 0 .239-1.936v-8a8 8 0 0 0 -8-8h-40v-8a40.045 40.045 0 0 1 40-40zm-40 160v-96h31.756l-3.117 12.54a80.505 80.505 0 0 0 0 38.91l3.6 14.481a8 8 0 0 0 5.749 5.811l13.318 3.466 9.594 28.792h-52.9a8.009 8.009 0 0 1 -8-8zm407.956 8h-180.982a8.014 8.014 0 0 1 4.377-8l1.69-.845a8 8 0 0 0 4.422-7.155v-72a72.081 72.081 0 0 1 72-72h16a72.081 72.081 0 0 1 72 72v72a8 8 0 0 0 4.421 7.155l1.69.845a8.016 8.016 0 0 1 4.382 8z"></path><path d="m371.938 376a8.009 8.009 0 0 1 8 8h16a24.042 24.042 0 0 0 -17.013-22.96v-9.04h-16v9.763a24 24 0 0 0 9.013 46.237 8 8 0 1 1 -8 8h-16a24.034 24.034 0 0 0 14.987 22.237v9.763h16v-9.04a24 24 0 0 0 -6.987-46.96 8 8 0 0 1 0-16z"></path><circle cx="152" cy="184" r="8"></circle><circle cx="216" cy="184" r="8"></circle><path d="m162.343 231.03a30.665 30.665 0 0 0 43.314 0 8 8 0 0 0 -11.314-11.314 14.644 14.644 0 0 1 -20.686 0 8 8 0 0 0 -11.314 11.314z"></path></g></svg>