<svg xmlns="http://www.w3.org/2000/svg" xmlns:xlink="http://www.w3.org/1999/xlink" id="Capa_1" x="0px" y="0px" viewBox="0 0 479.973 479.973" style="enable-background:new 0 0 479.973 479.973;" xml:space="preserve" width="479.973"  height="479.973" >
<path style="" d="M287.986,415.593c-26.51,0.012-48.01-21.469-48.022-47.978c-0.006-12.743,5.056-24.966,14.07-33.974  l94.08-94.048l-94.08-94.048c-18.751-18.751-18.751-49.153,0-67.904s49.153-18.751,67.904,0l128,128  c18.751,18.739,18.761,49.131,0.022,67.882c-0.007,0.007-0.014,0.015-0.022,0.022l-128,128  C312.932,410.545,300.719,415.599,287.986,415.593z" fill="#ffc107"></path>
<path d="M287.986,431.593c-35.346-0.008-63.994-28.667-63.986-64.014c0.004-16.966,6.744-33.236,18.738-45.234l82.752-82.752  l-82.752-82.752c-24.555-25.424-23.851-65.941,1.573-90.496c24.802-23.954,64.122-23.954,88.923,0l128,128  c24.984,24.992,24.984,65.504,0,90.496l-128,128C321.263,424.886,304.969,431.639,287.986,431.593z M287.986,79.593  c-17.673,0.004-31.997,14.334-31.993,32.007c0.002,8.483,3.372,16.618,9.369,22.617l105.376,105.376L265.362,344.969  c-12.492,12.496-12.492,32.752,0,45.248c12.655,12.101,32.593,12.101,45.248,0l128-128c12.492-12.496,12.492-32.752,0-45.248  l-128-128C304.611,82.967,296.473,79.595,287.986,79.593z"></path>
<path style="" d="M63.986,415.593c-26.51,0.012-48.01-21.469-48.022-47.978c-0.006-12.743,5.056-24.966,14.07-33.974  l94.08-94.048l-94.08-94.048c-18.751-18.751-18.751-49.153,0-67.904s49.153-18.751,67.904,0l0,0l128,128  c18.751,18.739,18.761,49.131,0.022,67.882c-0.007,0.007-0.014,0.015-0.022,0.022l-128,128  C88.932,410.545,76.719,415.599,63.986,415.593z" fill="#ffc107"></path>
<path d="M63.986,431.593C28.64,431.585-0.008,402.926,0,367.579c0.004-16.966,6.744-33.236,18.738-45.234l82.752-82.752  l-82.752-82.752C-5.817,131.417-5.113,90.9,20.311,66.345c24.801-23.954,64.122-23.954,88.923,0l128,128  c24.984,24.992,24.984,65.504,0,90.496l-128,128C97.263,424.886,80.969,431.639,63.986,431.593z M63.986,79.593  C46.313,79.597,31.989,93.927,31.993,111.6c0.002,8.483,3.372,16.618,9.369,22.617l105.376,105.376L41.362,344.969  c-12.492,12.496-12.492,32.752,0,45.248c12.655,12.101,32.593,12.101,45.248,0l128-128c12.492-12.496,12.492-32.752,0-45.248  l-128-128C80.611,82.967,72.473,79.595,63.986,79.593z"></path>
<g>
</g>
<g>
</g>
<g>
</g>
<g>
</g>
<g>
</g>
<g>
</g>
<g>
</g>
<g>
</g>
<g>
</g>
<g>
</g>
<g>
</g>
<g>
</g>
<g>
</g>
<g>
</g>
<g>
</g>
</svg>