<svg xmlns="http://www.w3.org/2000/svg" height="511pt" viewBox="-66 1 511 511.999" width="511pt">
    <g fill-rule="evenodd">
        <path d="m130.363281 190.585938-119.863281 69.203124 59.929688 34.601563 119.867187-69.203125zm0 0" fill="#dca98a"></path>
        <path d="m190.296875 225.1875-119.867187 69.203125 119.867187 69.203125zm0 0" fill="#c58965"></path>
        <path d="m190.296875 363.59375-119.867187-69.203125-59.929688 34.601563 59.929688 34.601562 59.933593 34.601562zm0 0" fill="#dca98a"></path>
        <path d="m190.296875 363.59375-59.933594 34.601562-59.933593-34.601562v69.203125l119.867187 69.203125zm0 0" fill="#dca98a"></path>
        <path d="m190.296875 363.59375v138.40625l119.863281-69.203125v-69.203125l-59.933594 34.601562zm0 0" fill="#dca98a"></path>
        <path d="m190.296875 363.59375 59.929687 34.601562 59.933594-34.601562 59.929688-34.601562-59.929688-34.601563zm0 0" fill="#dca98a"></path>
        <path d="m190.296875 363.59375 119.863281-69.203125-119.863281-69.203125zm0 0" fill="#c58965"></path>
        <path d="m190.296875 225.1875 119.863281 69.203125 59.929688-34.601563-119.863282-69.203124zm0 0" fill="#dca98a"></path>
        <path d="m204.4375 15.84375 48.820312 48.824219c7.8125 7.808593 7.8125 20.472656 0 28.28125-7.808593 7.808593-20.472656 7.808593-28.28125 0l-14.679687-14.679688v75.460938c0 11.046875-8.953125 20-20 20s-20-8.953125-20-20v-75.460938l-14.683594 14.679688c-7.808593 7.808593-20.472656 7.808593-28.28125 0-7.808593-7.808594-7.808593-20.472657 0-28.28125l48.824219-48.824219c7.808594-7.808594 20.46875-7.808594 28.28125 0zm0 0" fill="#ff6977"></path>
    </g>
    <path d="m375.089844 320.332031-44.929688-25.941406 44.929688-25.941406c3.09375-1.785157 5-5.089844 5-8.660157 0-3.574218-1.90625-6.875-5-8.660156l-119.863282-69.203125c-3.09375-1.789062-6.90625-1.789062-10 0l-54.929687 31.714844-54.933594-31.714844c-3.09375-1.789062-6.90625-1.789062-10 0l-13.992187 8.078125c-4.785156 2.761719-6.421875 8.875-3.660156 13.660156 2.761718 4.78125 8.875 6.421876 13.660156 3.660157l8.992187-5.191407 39.929688 23.054688-99.863281 57.65625-39.929688-23.054688 12.925781-7.464843c4.785157-2.761719 6.421875-8.875 3.660157-13.660157-2.761719-4.78125-8.878907-6.421874-13.660157-3.660156l-27.925781 16.125c-3.09375 1.785156-5 5.085938-5 8.660156 0 3.570313 1.90625 6.875 5 8.660157l44.929688 25.941406-44.929688 25.941406c-3.09375 1.785157-5 5.085938-5 8.660157 0 3.570312 1.90625 6.871093 5 8.660156l54.929688 31.714844v63.429687c0 3.570313 1.90625 6.875 5 8.660156l119.863281 69.203125c1.550781.894532 3.273437 1.339844 5.003906 1.339844 1.726563 0 3.449219-.445312 5-1.339844l31.050781-17.929687c4.78125-2.761719 6.421875-8.875 3.660156-13.660157-2.761718-4.78125-8.878906-6.421874-13.664062-3.660156l-16.046875 9.265625v-103.761719l44.929687 25.941407c1.546876.894531 3.273438 1.339843 5 1.339843 1.726563 0 3.453126-.445312 5-1.339843l44.933594-25.941407v46.109376l-5.871094 3.386718c-4.78125 2.761719-6.421874 8.878906-3.660156 13.660156 1.851563 3.210938 5.214844 5.003907 8.671875 5.003907 1.695313 0 3.414063-.433594 4.988281-1.34375l10.871094-6.273438c3.09375-1.785156 5-5.085937 5-8.660156v-63.429687l54.929688-31.714844c3.09375-1.785156 5-5.089844 5-8.660156 0-3.574219-1.90625-6.875-5-8.660157zm-124.863282-118.199219 99.863282 57.65625-39.929688 23.054688-99.863281-57.65625zm39.933594 92.257813-89.863281 51.882813v-103.765626zm-109.867187-51.882813v103.765626l-89.863281-51.882813zm-109.863281 63.429688 99.867187 57.65625-39.933594 23.054688-99.863281-57.65625zm10 74.976562 44.933593 25.941407c1.546875.894531 3.273438 1.339843 5 1.339843 1.726563 0 3.453125-.445312 5-1.339843l44.929688-25.941407v103.765626l-99.863281-57.65625zm169.796874 5.734376-39.929687-23.054688 99.863281-57.65625 39.929688 23.050781zm0 0"></path>
    <path d="m141.472656 108.804688c6.933594 0 13.507813-2.335938 18.820313-6.632813v51.558594c0 16.542969 13.460937 30 30.003906 30 16.539063 0 30-13.457031 30-30v-51.558594c5.3125 4.300781 11.886719 6.636719 18.820313 6.636719 8.015624 0 15.546874-3.121094 21.214843-8.789063 11.695313-11.695312 11.695313-30.726562 0-42.421875l-48.824219-48.824218c-11.699218-11.699219-30.730468-11.699219-42.425781 0l-48.824219 48.820312c-11.695312 11.699219-11.695312 30.730469 0 42.425781 5.667969 5.667969 13.199219 8.785157 21.214844 8.785157zm-7.070312-37.066407 48.824218-48.824219c1.886719-1.886718 4.398438-2.925781 7.070313-2.925781 2.667969 0 5.179687 1.039063 7.066406 2.925781l48.824219 48.824219c1.890625 1.886719 2.929688 4.398438 2.929688 7.070313s-1.039063 5.179687-2.929688 7.070312c-1.886719 1.886719-4.398438 2.925782-7.070312 2.925782-2.671876 0-5.179688-1.039063-7.066407-2.925782l-14.683593-14.683594c-2.859376-2.859374-7.160157-3.714843-10.898438-2.167968s-6.171875 5.195312-6.171875 9.238281v75.464844c0 5.511719-4.488281 10-10 10-5.515625 0-10.003906-4.488281-10.003906-10v-75.464844c0-4.042969-2.433594-7.691406-6.171875-9.238281-1.238282-.511719-2.535156-.761719-3.824219-.761719-2.601563 0-5.160156 1.015625-7.074219 2.929687l-14.683594 14.683594c-1.886718 1.886719-4.394531 2.929688-7.066406 2.929688s-5.183594-1.042969-7.070312-2.929688c-1.890625-1.890625-2.929688-4.398437-2.929688-7.070312s1.039063-5.183594 2.929688-7.070313zm0 0"></path>
    <path d="m77.40625 231.167969c1.785156 0 3.597656-.480469 5.230469-1.484375l.003906-.003906c4.707031-2.894532 6.167969-9.050782 3.273437-13.753907-2.894531-4.703125-9.058593-6.167969-13.761718-3.273437-4.703125 2.894531-6.167969 9.054687-3.273438 13.757812 1.890625 3.066406 5.167969 4.757813 8.527344 4.757813zm0 0"></path>
    <path d="m255.355469 452.894531c-4.796875 2.738281-6.464844 8.847657-3.722657 13.640625 1.84375 3.230469 5.21875 5.042969 8.691407 5.042969 1.683593 0 3.386719-.425781 4.953125-1.320313l.003906-.003906c4.796875-2.738281 6.460938-8.847656 3.71875-13.640625-2.738281-4.796875-8.847656-6.460937-13.644531-3.71875zm0 0"></path>
</svg>