<svg xmlns="http://www.w3.org/2000/svg" height="512" viewBox="0 0 512 512" width="512"><g id="Filled_outline" data-name="Filled outline"><rect fill="#348fd9" height="416" rx="24" width="320" x="24" y="24"></rect><path d="m376 488h-272a24 24 0 0 1 -24-24v-312l80-80h216a24 24 0 0 1 24 24v368a24 24 0 0 1 -24 24z" fill="#60d1e0"></path><path d="m80 152h56a24 24 0 0 0 24-24v-56z" fill="#8adbe6"></path><path d="m270.051 139.553c7.261-11.5-6.1-24.865-17.6-17.6-3-13.265-21.9-13.265-24.894 0-11.5-7.261-24.865 6.105-17.6 17.6-13.265 3-13.265 21.9 0 24.894-7.261 11.5 6.1 24.865 17.6 17.6 3 13.265 21.9 13.265 24.894 0 11.5 7.261 24.865-6.1 17.6-17.6 13.265-2.996 13.265-21.898 0-24.894z" fill="#348fd9"></path><path d="m448 184a16 16 0 0 1 16 16v200a0 0 0 0 1 0 0h-32a0 0 0 0 1 0 0v-200a16 16 0 0 1 16-16z" fill="#92563a"></path><path d="m448 432-16-32h32z" fill="#ffb531"></path><path d="m32 80h-16v-32a32.036 32.036 0 0 1 32-32h272a32.036 32.036 0 0 1 32 32h-16a16.019 16.019 0 0 0 -16-16h-272a16.019 16.019 0 0 0 -16 16zm16 368h8v-16h-8a16.019 16.019 0 0 1 -16-16v-320h-16v320a32.036 32.036 0 0 0 32 32zm112-384h216a32.036 32.036 0 0 1 32 32v368a32.036 32.036 0 0 1 -32 32h-272a32.036 32.036 0 0 1 -32-32v-312a8 8 0 0 1 2.343-5.657l80-80a8 8 0 0 1 5.657-2.343zm-60.687 80h36.687a16.019 16.019 0 0 0 16-16v-36.687zm68.687-16a32.036 32.036 0 0 1 -32 32h-48v304a16.019 16.019 0 0 0 16 16h272a16.019 16.019 0 0 0 16-16v-368a16.019 16.019 0 0 0 -16-16h-208zm24 24a20.419 20.419 0 0 1 8.078-16.536 20.966 20.966 0 0 1 23.386-23.386 20.964 20.964 0 0 1 33.072 0 20.966 20.966 0 0 1 23.386 23.386 20.964 20.964 0 0 1 0 33.072 20.966 20.966 0 0 1 -23.386 23.386 20.964 20.964 0 0 1 -33.072 0 20.966 20.966 0 0 1 -23.386-23.386 20.419 20.419 0 0 1 -8.078-16.536zm16 0a4.5 4.5 0 0 0 3.712 4.644 8 8 0 0 1 5 12.074 4.761 4.761 0 0 0 6.567 6.569 8 8 0 0 1 12.075 5 4.761 4.761 0 0 0 9.288 0 8 8 0 0 1 12.075-5 4.761 4.761 0 0 0 6.568-6.568 8 8 0 0 1 5-12.075 4.761 4.761 0 0 0 0-9.288 8 8 0 0 1 -5-12.075 4.761 4.761 0 0 0 -6.568-6.568 8 8 0 0 1 -12.075-5 4.761 4.761 0 0 0 -9.288 0 8 8 0 0 1 -12.075 5 4.761 4.761 0 0 0 -6.567 6.569 8 8 0 0 1 -5 12.074 4.5 4.5 0 0 0 -3.712 4.644zm144 80h-192v16h192zm-208 0h-16v16h16zm144 32h-128v16h128zm16 16h48v-16h-48zm48 16h-192v16h192zm-208 0h-16v16h16zm64 32h-48v16h48zm16 16h128v-16h-128zm128 16h-192v16h192zm-208 0h-16v16h16zm175.2 53.906a12.608 12.608 0 0 0 -11.2-5.906c-7.694 0-14.6 5.389-19.972 11.541-4.514-9.881-11.71-11.541-16.028-11.541-16.127 0-28.782 23.676-31.155 28.422l14.306 7.163c5.06-10.067 13.248-19.585 16.84-19.608 2.132 1.178 3.987 9.8 4.009 16.023a8 8 0 0 0 15.151 3.585c3.9-7.76 9.659-15.193 13.753-18.192a55.39 55.39 0 0 1 -4.059 11.029 8 8 0 0 0 7.155 11.578h36v-16h-24.217c1.817-6.306 2.479-13.139-.583-18.094zm-164.137-5.3a8 8 0 0 0 -8.719 1.734l-10.344 10.347v-12.687h-16v32a8 8 0 0 0 13.657 5.657l10.343-10.344v4.687a8 8 0 0 0 13.657 5.657l10.343-10.344v4.687a8 8 0 0 0 12.8 6.4l32-24-9.6-12.8-19.2 14.4v-8a8 8 0 0 0 -13.657-5.657l-10.343 10.344v-4.687a8 8 0 0 0 -4.938-7.391zm52.937 39.394h16v-16h-16zm216.851-44.425a7.952 7.952 0 0 1 -.851-3.575v-200a24 24 0 0 1 48 0v200a7.952 7.952 0 0 1 -.851 3.575h.006l-16 32a8 8 0 0 1 -14.31 0l-16-32zm26.2 4.425h-6.112l3.061 6.111zm-11.051-200h16v-8a8 8 0 0 0 -16 0zm0 120h16v-104h-16zm0 64h16v-48h-16z"></path></g></svg>