<svg xmlns="http://www.w3.org/2000/svg" id="Capa_1" height="512" viewBox="0 0 512 512" width="512"><g><g><g><g><path d="m384.415 204.734h-19.143c-6.623 0-11.991-5.369-11.991-11.991v-68.875h30.908l12.028 66.748c1.325 7.356-4.328 14.118-11.802 14.118z" fill="#a8d0d5"></path><g><g><g><g><path d="m479.216 52.258c-14.192 23.24-39.561 34.198-67.152 34.201l-57.326.003c-11.249.001-20.367 9.121-20.367 20.37l.002 27.13c.001 11.249 9.121 20.368 20.37 20.367l57.326-.003c27.59-.002 52.962 10.952 67.158 34.19z" fill="#eff3f5"></path></g><g><path d="m479.216 52.258c-10.954 17.938-28.57 28.552-48.723 32.466l.005 71.334c20.154 3.911 37.771 14.522 48.729 32.458z" fill="#daeaef"></path></g><path d="m394.1 86.459-39.362.002c-11.249.001-20.367 9.121-20.367 20.37l.002 27.13c.001 11.249 9.121 20.368 20.37 20.367l39.362-.002z" fill="#fc8086"></path></g><g><g><path d="m487.251 199.649c8.812-.001 15.955-7.145 15.954-15.957l-.01-126.599c-.001-8.812-7.145-15.955-15.957-15.954-8.812.001-15.955 7.145-15.954 15.957l.01 126.599c0 8.811 7.144 15.954 15.957 15.954z" fill="#fc8086"></path></g></g></g></g></g><g><g><g><g><g><g><path d="m298.022 123.554v54.531c0 76.671-62.154 138.825-138.825 138.825h-93.284v-193.356c0-64.095 51.96-116.054 116.054-116.054 64.096 0 116.055 51.959 116.055 116.054z" fill="#fcb143"></path></g><path d="m40.328 327.708c27.1-13.757 55.702-23.322 84.893-28.701 11.301-2.083 19.489-11.958 19.489-23.45v-45.589h74.515v45.589c0 11.492 8.187 21.367 19.489 23.45 29.191 5.38 57.793 14.945 84.893 28.701 19.345 9.82 31.533 29.676 31.533 51.371v113.118c0 6.795-5.508 12.303-12.303 12.303h-321.739c-6.795 0-12.303-5.508-12.303-12.303v-113.118c0-21.695 12.188-41.551 31.533-51.371z" fill="#ffece3"></path><g><path d="m323.607 327.708c-27.1-13.757-55.702-23.322-84.893-28.701-11.301-2.083-19.489-11.958-19.489-23.45v-45.589h-40.647v71.622c0 11.492 8.187 21.367 19.489 23.45 29.191 5.38 57.793 14.945 84.893 28.701 19.345 9.82 31.533 29.676 31.533 51.371v99.388h28.344c6.795 0 12.303-5.508 12.303-12.303v-113.118c0-21.695-12.188-41.551-31.533-51.371z" fill="#ffddce"></path></g><path d="m323.607 327.708c-12.007-6.095-24.309-11.363-36.826-15.813-22.045 34.331-60.561 57.076-104.391 57.076-43.931 0-82.524-22.852-104.543-57.317-12.755 4.501-25.291 9.846-37.518 16.053-19.345 9.82-31.533 29.676-31.533 51.371v113.118c0 6.795 5.508 12.303 12.303 12.303h321.739c6.795 0 12.303-5.508 12.303-12.303v-113.117c-.001-21.695-12.189-41.551-31.534-51.371z" fill="#d5b0ec"></path><path d="m342.837 504.5c6.795 0 12.303-5.508 12.303-12.303v-113.118c0-21.695-12.188-41.551-31.533-51.371-12.006-6.095-24.309-11.363-36.826-15.813-7.569 11.788-17.081 22.209-28.083 30.813 8.201 3.319 16.298 6.99 24.262 11.032 19.345 9.82 31.533 29.676 31.533 51.371v99.389z" fill="#c995e4"></path><g><path d="m254.705 117.229h22.514c11.495 0 20.803 9.321 20.803 20.816v9.846c0 11.495-9.308 20.816-20.803 20.816h-22.514z" fill="#ffece3"></path><path d="m109.095 117.229h-22.378c-11.495 0-20.803 9.321-20.803 20.816v9.846c0 11.495 9.308 20.816 20.803 20.816h22.379v-51.478z" fill="#ffddce"></path></g><g><g><g><g><g><g><path d="m263.812 173.087c-.047 54.175-56.943 84.381-81.565 84.887-24.621-.548-81.465-30.852-81.419-85.027l-.172-104.65 119.606.103-.004 4.83c-.02 24.247 19.619 43.979 43.866 43.999z" fill="#ffece3"></path></g></g></g></g></g><g><path d="m264.124 117.229c-18.835-.016-34.883-11.953-41.102-28.618l-.169 84.476c-.036 41.975-34.199 69.556-61.037 80.087 7.761 3.052 14.908 4.677 20.431 4.8 24.622-.506 81.519-30.712 81.565-84.887z" fill="#ffddce"></path></g></g></g><path d="m65.913 244v141.159c43.518 0 78.797-35.278 78.797-78.797v-61.834z" fill="#fcb143"></path></g></g></g><path d="m266.128 380.999 7.955 18.939c.314.747 1.016 1.257 1.823 1.324l20.471 1.713c1.92.161 2.697 2.554 1.239 3.812l-15.554 13.418c-.613.529-.881 1.355-.696 2.143l4.697 19.998c.44 1.875-1.595 3.354-3.243 2.356l-17.568-10.647c-.693-.42-1.561-.42-2.253 0l-17.568 10.647c-1.647.998-3.683-.481-3.243-2.356l4.697-19.998c.185-.788-.083-1.614-.696-2.143l-15.554-13.418c-1.459-1.258-.681-3.652 1.239-3.812l20.471-1.713c.807-.068 1.509-.578 1.823-1.324l7.955-18.939c.743-1.776 3.259-1.776 4.005 0z" fill="#fbe77b"></path></g></g><path d="m181.968 7.5c-62.224 0-112.589 48.831-115.879 109.693h.019c-.326 5.918-.138 7.376-.195 20.852 0-11.495 9.308-20.816 20.803-20.816h14.081v-.022l51.947.022c41.561-3.512 75.281-37.174 75.317-78.735s.153-9.867.33-21.327c-14.216-6.213-29.915-9.667-46.423-9.667z" fill="#fa9801"></path></g><g><path d="m327.001 321.021c-24.673-12.526-50.817-21.773-77.835-27.565 14.981-11.706 27.656-26.269 37.118-42.804 12.585-21.992 19.237-47.085 19.237-72.566v-54.53c0-50.328-30.25-93.718-73.52-112.959-.398-.219-.816-.405-1.255-.55-14.972-6.46-31.463-10.047-48.778-10.047-24.164 0-47.571 6.978-67.692 20.178-3.463 2.271-4.429 6.921-2.156 10.385 2.271 3.464 6.921 4.43 10.385 2.156 17.668-11.592 38.23-17.719 59.463-17.719 13.682 0 26.778 2.551 38.846 7.192l-.251 16.186c-.001.036-.001.073-.001.109-.032 36.624-29.937 67.859-68.139 71.241l-51.622-.021c-.001 0-.002 0-.003 0-.146 0-.289.013-.434.021h-13.647c-4.581 0-8.91 1.095-12.74 3.038 2.104-20.933 10.26-40.998 23.529-57.411 2.604-3.221 2.104-7.943-1.117-10.547-3.219-2.605-7.943-2.104-10.547 1.117-17.688 21.876-27.428 49.445-27.428 77.629v187.562c-7.276 3.042-14.484 6.353-21.479 9.904-21.984 11.16-35.64 33.407-35.64 58.059v113.118c0 10.919 8.884 19.803 19.803 19.803h280.378 41.361c10.92 0 19.804-8.884 19.804-19.803v-44.697c0-4.143-3.357-7.5-7.5-7.5s-7.5 3.357-7.5 7.5v44.697c0 2.648-2.155 4.803-4.804 4.803h-33.842v-26.122c0-4.143-3.357-7.5-7.5-7.5s-7.5 3.357-7.5 7.5v26.122h-224.054v-26.122c0-4.143-3.357-7.5-7.5-7.5s-7.5 3.357-7.5 7.5v26.122h-33.843c-2.648 0-4.803-2.154-4.803-4.803v-113.118c0-18.974 10.51-36.095 27.428-44.684 4.807-2.44 9.725-4.753 14.69-6.95v57.713c0 4.143 3.357 7.5 7.5 7.5 24.885 0 47.33-10.601 63.094-27.508 16.825 7.506 34.752 11.32 53.384 11.32 42.961 0 82.629-20.65 107.308-55.521 10.392 3.918 20.579 8.402 30.514 13.446 16.918 8.589 27.428 25.71 27.428 44.684v33.267c0 4.143 3.357 7.5 7.5 7.5s7.5-3.357 7.5-7.5v-33.267c0-24.652-13.657-46.899-35.64-58.058zm-95.12-33.554c-3.191-3.005-5.155-7.256-5.155-11.91v-26.488c3.472-2.298 6.931-4.832 10.314-7.645 21.194-17.617 33.251-40.685 34.204-65.217h5.974c4.808 0 9.334-1.214 13.303-3.339v5.217c0 44.402-21.831 84.929-58.64 109.382zm45.338-162.738c7.335 0 13.303 5.974 13.303 13.316v9.846c0 7.343-5.968 13.316-13.303 13.316h-5.84l.204-36.479h5.636zm12.769-11.947c-8.992-4.571-15.844-2.552-25.858-3.054-19.953-.016-36.189-16.197-36.363-36.139 5.082-10.926 7.776-22.824 7.795-35.032l.144-9.296c29.768 17.033 50.742 47.752 54.282 83.521zm-136.611 11.92c23.811-2.013 46.799-13.279 62.86-32.839 6.582 16.941 21.874 29.564 40.348 32.308-.076 13.709-.189 33.916-.272 48.909-.042 47.958-51.223 76.782-74.059 77.392-24.775-.7-73.966-31.479-73.926-77.538-.027-16.227-.053-32.306-.079-48.224 47.68.02 44.632.033 45.128-.008zm-66.66.027h6.532l.06 36.479h-6.592c-7.336 0-13.304-5.974-13.304-13.316v-9.846c0-7.344 5.968-13.317 13.304-13.317zm-13.304 252.539c0-23.795 0-183.786 0-204.407 3.969 2.128 8.494 3.347 13.304 3.347h6.682c.963 24.495 12.973 47.513 34.084 65.122 3.192 2.663 6.452 5.069 9.727 7.273v57.76c0 36.782-27.994 67.147-63.797 70.905zm108.978-15.797c-15.251 0-29.966-2.884-43.867-8.563 8.646-13.441 13.687-29.411 13.687-46.546v-49.196c11.474 5.446 22.191 8.135 29.87 8.305.056.001.111.002.167.002.052 0 .103-.001.154-.002 7.555-.155 18.052-2.737 29.324-7.986v18.071c0 15.124 10.778 28.089 25.629 30.826 12.715 2.343 25.244 5.489 37.522 9.409-21.996 28.766-55.893 45.68-92.486 45.68z"></path><path d="m305.396 402.151c-1.208-3.715-4.503-6.325-8.394-6.649l-17.254-1.444-6.705-15.963c-1.513-3.602-5.014-5.928-8.919-5.928-.001 0-.002 0-.003 0-3.906.001-7.406 2.329-8.916 5.928l-6.705 15.963-17.252 1.444c-3.893.324-7.188 2.935-8.396 6.648-1.208 3.715-.077 7.765 2.881 10.316l13.11 11.31-3.959 16.856c-.893 3.802.572 7.741 3.731 10.037s7.36 2.473 10.7.447l14.808-8.974 14.809 8.975c1.549.938 3.284 1.404 5.014 1.404 1.999 0 3.992-.622 5.686-1.853 3.159-2.296 4.624-6.235 3.731-10.038l-3.96-16.855 13.111-11.31c2.958-2.55 4.089-6.599 2.882-10.314zm-28.235 12.376c-2.735 2.36-3.923 6.013-3.099 9.536l1.798 7.653-6.724-4.075c-3.095-1.874-6.938-1.873-10.026.001l-6.724 4.074 1.797-7.649c.829-3.523-.359-7.181-3.098-9.54l-5.953-5.135 7.833-.656c3.604-.301 6.713-2.559 8.114-5.894l3.044-7.247 3.045 7.248c1.4 3.334 4.51 5.592 8.112 5.893l7.833.655z"></path><path d="m510.695 57.092c-.001-12.934-10.524-23.454-23.458-23.453s-23.454 10.524-23.453 23.458v2.643c-12.561 12.407-30.795 19.217-51.72 19.219l-17.946.001c-.006 0-.012-.001-.018-.001s-.012.001-.018.001l-39.345.002c-15.366.001-27.866 12.504-27.865 27.869l.001 27.131c.001 7.444 2.9 14.442 8.164 19.705 3.075 3.074 6.743 5.334 10.744 6.689v32.387c0 10.747 8.743 19.491 19.49 19.491h19.145c5.79 0 11.24-2.548 14.954-6.99s5.255-10.259 4.228-15.958l-4.949-27.46 13.42-.001h.008c20.921 0 39.156 6.807 51.717 19.209v2.66c0 6.266 2.44 12.156 6.871 16.586s10.321 6.868 16.586 6.868h.001c6.265 0 12.154-2.44 16.585-6.871 4.43-4.431 6.869-10.321 6.868-16.587zm-168.822 76.869-.001-27.131c0-3.437 1.338-6.668 3.768-9.099 2.431-2.431 5.662-3.77 9.099-3.77l31.863-.002.003 52.866-31.862.002c-.228 0-.452-.021-.677-.033-.207-.021-.417-.029-.629-.033-2.943-.295-5.673-1.582-7.793-3.702-2.432-2.429-3.771-5.662-3.771-9.098zm46.963 57.985c.323 1.798-.472 3.075-.975 3.678-.503.602-1.619 1.61-3.445 1.61h-19.145c-2.476 0-4.49-2.015-4.49-4.491v-30.915l22.627-.001zm23.241-45.121c-.001 0-.008 0-.009 0h-10.464l-.003-52.866h10.464c19.682-.001 37.513-5.198 51.72-14.868l.006 82.594c-14.205-9.667-32.033-14.86-51.714-14.86zm81.152 42.847c-1.597 1.597-3.72 2.477-5.978 2.477h-.001c-2.259 0-4.382-.879-5.979-2.476s-2.477-3.72-2.477-5.979l-.01-126.599c-.001-4.662 3.792-8.455 8.455-8.456 4.662-.001 8.455 3.792 8.456 8.455l.01 126.599c0 2.258-.879 4.381-2.476 5.979z"></path></g></g></svg>