<svg xmlns="http://www.w3.org/2000/svg" height="512" viewBox="0 0 512 512" width="512"><g id="Filled_outline" data-name="Filled outline"><path d="m376 424v32c0 .28 0 .56-.01.84a32 32 0 0 1 -31.99 31.16h-176a31.973 31.973 0 0 1 -32-32v-32z" fill="#e0e0de"></path><path d="m376 88v16h-240v-16a32 32 0 0 1 32-32h176c.85 0 1.7.03 2.53.1a32 32 0 0 1 29.47 31.9z" fill="#e0e0de"></path><path d="m136 104h240v320h-240z" fill="#d3669a"></path><path d="m376 424v32c0 .28 0 .56-.01.84a32 32 0 0 1 -31.99 31.16h-176a31.943 31.943 0 0 1 -7.75-.95 1.132 1.132 0 0 0 -.42-.24l27.05-62.81z" fill="#d6d6d4"></path><path d="m376 88v56h-67.32l17.22-40 20.63-47.9a32 32 0 0 1 29.47 31.9z" fill="#d6d6d4"></path><path d="m186.877 424h189.123v-320h-51.324z" fill="#cc5e93"></path><path d="m192 424v40h-54.99a32 32 0 0 1 -1.01-8v-32z" fill="#d6d6d4"></path><path d="m136 88v16h112v-40a23.769 23.769 0 0 0 -1.47-8h-78.53a32 32 0 0 0 -32 32z" fill="#d6d6d4"></path><path d="m184 216h40a24 24 0 0 0 24-24v-88h-112v112l48 32z" fill="#cc5e93"></path><path d="m428.211 283.682-52.211-67.682v128l-28-28a28.284 28.284 0 0 0 -40 40l44 44-3.585 5.378a70.053 70.053 0 0 0 3.585 82.622h96v-151.644a80 80 0 0 0 -19.789-52.674z" fill="#fec9a3"></path><path d="m232 48v128a24.006 24.006 0 0 1 -24 24h-40v32l-48-32h-72a24.006 24.006 0 0 1 -24-24v-128a24.006 24.006 0 0 1 24-24h160a24.006 24.006 0 0 1 24 24z" fill="#4db7e5"></path><path d="m232 48v128a24.006 24.006 0 0 1 -24 24h-40v32l-48-32h-60.39c61.42-31.78 129.79-84.16 166.14-168.15a23.949 23.949 0 0 1 6.25 16.15z" fill="#48add9"></path><path d="m172.8 104h-20.8v-24a24 24 0 0 0 -24-24 8 8 0 0 0 -8 8v24l-16 16v64h68.8a11.2 11.2 0 0 0 11.2-11.2v-41.6a11.2 11.2 0 0 0 -11.2-11.2z" fill="#fec9a3"></path><path d="m72 104h32v64h-32z" fill="#348fd9"></path><path d="m488 112v112a24.006 24.006 0 0 1 -24 24h-88l-48 32v-32h-8a24.027 24.027 0 0 1 -24-24v-112a24.006 24.006 0 0 1 24-24h144a23.188 23.188 0 0 1 5.56.66 23.993 23.993 0 0 1 18.44 23.34z" fill="#4db7e5"></path><path d="m488 112v112a24.006 24.006 0 0 1 -24 24h-88l-48 32v-32h-8a23.843 23.843 0 0 1 -14.58-4.95c50.27-29.65 109.94-77.6 164.14-154.39a23.993 23.993 0 0 1 18.44 23.34z" fill="#48add9"></path><path d="m392 216-44.868-35.14c-11.275-8.831-14.471-25.679-7.342-38.707 8.109-14.819 26.129-18.689 38.738-8.321l13.472 11.079 13.472-11.079c12.609-10.368 30.629-6.5 38.738 8.321 7.129 13.028 3.933 29.876-7.342 38.707z" fill="#f35244"></path><path d="m232 360v64a24.006 24.006 0 0 1 -24 24h-160a24.006 24.006 0 0 1 -24-24v-64a24.006 24.006 0 0 1 24-24h72l48-32v32h40a24.018 24.018 0 0 1 24 24z" fill="#4db7e5"></path><path d="m232 360v64a24.006 24.006 0 0 1 -24 24h-152.48c52.85-19.42 115.73-52.95 163.81-109.15a23.98 23.98 0 0 1 12.67 21.15z" fill="#48add9"></path><path d="m184 336v-16l-16 10.667v5.333z" fill="#cc5e93"></path><path d="m248 448h16v16h-16z"></path><path d="m48 208h69.578l45.984 30.656a8 8 0 0 0 12.438-6.656v-24h32a32.032 32.032 0 0 0 32-32v-128a32.032 32.032 0 0 0 -32-32h-160a32.032 32.032 0 0 0 -32 32v128a32.032 32.032 0 0 0 32 32zm-16-160a16.021 16.021 0 0 1 16-16h160a16.021 16.021 0 0 1 16 16v128a16.021 16.021 0 0 1 -16 16h-40a8 8 0 0 0 -8 8v17.055l-35.562-23.711a8.011 8.011 0 0 0 -4.438-1.344h-72a16.021 16.021 0 0 1 -16-16z"></path><path d="m72 176h100.8a19.228 19.228 0 0 0 19.2-19.2v-41.6a19.228 19.228 0 0 0 -19.2-19.2h-12.8v-16a32.032 32.032 0 0 0 -32-32 16.021 16.021 0 0 0 -16 16v20.688l-11.312 11.312h-28.688a8 8 0 0 0 -8 8v64a8 8 0 0 0 8 8zm53.656-82.344a7.994 7.994 0 0 0 2.344-5.656v-24a16.021 16.021 0 0 1 16 16v16h-8v16h36.8a3.208 3.208 0 0 1 3.2 3.2v41.6a3.208 3.208 0 0 1 -3.2 3.2h-60.8v-52.688zm-45.656 18.344h16v48h-16z"></path><path d="m464 80h-80.809a40.067 40.067 0 0 0 -39.191-32h-88v16h88a23.96 23.96 0 0 1 22.526 16h-46.526a31.891 31.891 0 0 0 -27.55 16h-36.45v16h32v112a32.032 32.032 0 0 0 32 32v24a8 8 0 0 0 12.438 6.656l35.562-23.708v61.74l-14.344-14.344a36.283 36.283 0 1 0 -51.312 51.312l39.344 39.344a78.339 78.339 0 0 0 -7.7 15h-69.988v16h65.7a78.072 78.072 0 0 0 7.718 48h-169.418a24.027 24.027 0 0 1 -24-24h64a32.032 32.032 0 0 0 32-32v-64a32.032 32.032 0 0 0 -32-32h-32v-24a8 8 0 0 0 -12.438-6.656l-19.562 13.041v-70.385h-16v81.052l-10.422 6.948h-69.578a32.032 32.032 0 0 0 -32 32v64a32.032 32.032 0 0 0 32 32h80a40.047 40.047 0 0 0 40 40h280a8 8 0 0 0 8-8v-151.68a87.592 87.592 0 0 0 -21.422-57.52l-17.585-22.8h47.007a32.032 32.032 0 0 0 32-32v-112a32.032 32.032 0 0 0 -32-32zm-416 360a16.021 16.021 0 0 1 -16-16v-64a16.021 16.021 0 0 1 16-16h72a8.011 8.011 0 0 0 4.438-1.344l35.562-23.711v17.055a8 8 0 0 0 8 8h40a16.021 16.021 0 0 1 16 16v64a16.021 16.021 0 0 1 -16 16zm374.219-151.055a71.985 71.985 0 0 1 17.781 47.375v143.68h-83.953a62.147 62.147 0 0 1 -1.008-70.18l3.6-5.359a8 8 0 0 0 -.985-10.117l-44-44a20.285 20.285 0 0 1 28.688-28.688l60 60 11.312-11.312-29.654-29.656v-84.688h12.789zm57.781-64.945a16.021 16.021 0 0 1 -16 16h-88a8.011 8.011 0 0 0 -4.438 1.344l-35.562 23.711v-17.055a8 8 0 0 0 -8-8h-8a16.021 16.021 0 0 1 -16-16v-112a16.021 16.021 0 0 1 16-16h144a16.021 16.021 0 0 1 16 16z"></path><path d="m427.539 120.594a32.83 32.83 0 0 0 -27.148 7.062l-8.391 6.9-8.383-6.9a32.758 32.758 0 0 0 -27.156-7.062 34.618 34.618 0 0 0 -23.688 17.726c-9.054 16.539-5 37.539 9.43 48.836l44.867 35.144a7.987 7.987 0 0 0 9.86 0l44.87-35.144c14.43-11.3 18.484-32.3 9.43-48.844a34.629 34.629 0 0 0 -23.691-17.718zm4.4 53.968-39.939 31.274-39.938-31.274c-8.195-6.421-10.507-18.968-5.257-28.562a18.742 18.742 0 0 1 12.687-9.7 16.619 16.619 0 0 1 13.961 3.719l13.469 11.078a8.006 8.006 0 0 0 10.156 0l13.477-11.078a16.712 16.712 0 0 1 13.953-3.719 18.754 18.754 0 0 1 12.687 9.695c5.25 9.599 2.938 22.146-5.257 28.567z"></path><path d="m48 368h112v16h-112z"></path><path d="m176 368h32v16h-32z"></path><path d="m48 400h48v16h-48z"></path><path d="m112 400h96v16h-96z"></path></g></svg>