<svg xmlns="http://www.w3.org/2000/svg" id="speach_x5F_people" height="512" viewBox="0 0 300 300" width="512"><circle cx="120" cy="141.949" fill="#efefd2" r="90"></circle><path d="m122 47.949h48v68h-48z" fill="#bf7e68"></path><path d="m170 119.949h-48c-2.209 0-4-1.789-4-4v-68c0-2.211 1.791-4 4-4h48c2.211 0 4 1.789 4 4v68c0 2.211-1.789 4-4 4zm-44-8h40v-60h-40z" fill="#4c241d"></path><path d="m181.613 128.391h-67.618v-2.812c0-12.345 10.008-22.353 22.353-22.353h22.912c12.345 0 22.353 10.008 22.353 22.353z" fill="#e66353"></path><path d="m181.613 132.391h-67.617c-2.209 0-4-1.789-4-4v-2.812c0-14.531 11.82-26.352 26.352-26.352h22.914c14.531 0 26.352 11.82 26.352 26.352v2.812c-.001 2.211-1.79 4-4.001 4zm-63.58-8h59.541c-.613-9.566-8.594-17.164-18.312-17.164h-22.914c-9.721 0-17.7 7.597-18.315 17.164z" fill="#4c241d"></path><path d="m138 103.949h16v20h-16z" fill="#ffffff"></path><path d="m154 127.949h-16c-2.211 0-4-1.789-4-4v-20c0-2.211 1.789-4 4-4h16c2.211 0 4 1.789 4 4v20c0 2.211-1.789 4-4 4zm-12-8h8v-12h-8z" fill="#4c241d"></path><path d="m146 111.949c-4.418 0-8-3.582-8-8v-17.627h16v17.628c0 4.417-3.582 7.999-8 7.999z" fill="#e7d1c4"></path><path d="m146 115.949c-6.617 0-12-5.383-12-12v-17.629c0-2.211 1.789-4 4-4h16c2.211 0 4 1.789 4 4v17.629c0 6.617-5.383 12-12 12zm-4-25.629v13.629c0 2.207 1.793 4 4 4s4-1.793 4-4v-13.629z" fill="#4c241d"></path><path d="m146 95.949c-13.255 0-24-10.745-24-24v-21.55h48v21.55c0 13.255-10.745 24-24 24z" fill="#e7d1c4"></path><path d="m146 99.949c-15.439 0-28-12.562-28-28v-21.551c0-2.211 1.791-4 4-4h48c2.211 0 4 1.789 4 4v21.551c0 15.438-12.562 28-28 28zm-20-45.551v17.551c0 11.027 8.973 20 20 20s20-8.973 20-20v-17.551z" fill="#4c241d"></path><path d="m122 63.846 8.727-9.113s13.091 9.113 30.545 0l8.728 9.113v-11.053c0-7.674-6.153-13.896-13.743-13.896 0-3.837-3.076-6.948-6.871-6.948h-13.644c-7.59 0-13.743 6.221-13.743 13.896v18.001z" fill="#bf7e68"></path><path d="m170 67.848c-1.07 0-2.121-.43-2.891-1.234l-6.723-7.02c-13.191 5.773-23.883 2.461-28.887.117l-6.611 6.902c-1.131 1.18-2.871 1.551-4.379.945-1.516-.609-2.51-2.078-2.51-3.711v-18.003c0-9.867 7.959-17.895 17.742-17.895h13.645c4.715 0 8.738 3.039 10.242 7.273 8.176 1.59 14.371 8.863 14.371 17.57v11.055c0 1.633-.992 3.102-2.508 3.711-.483.196-.991.29-1.491.29zm-39.271-17.114c.793 0 1.592.234 2.283.719.441.293 11.449 7.547 26.41-.266 1.578-.82 3.512-.504 4.742.781l1.836 1.919v-1.094c0-5.457-4.371-9.895-9.742-9.895-2.211 0-4-1.789-4-4 0-1.625-1.289-2.949-2.871-2.949h-13.645c-5.371 0-9.742 4.438-9.742 9.895v8.043l1.838-1.918c.779-.813 1.83-1.235 2.891-1.235z" fill="#4c241d"></path><path d="m102 139.013h92v68.937h-92z" fill="#e7d1c4"></path><path d="m194 211.949h-92c-2.209 0-4-1.789-4-4v-68.938c0-2.211 1.791-4 4-4h92c2.211 0 4 1.789 4 4v68.938c0 2.211-1.789 4-4 4zm-88-8h84v-60.938h-84z" fill="#4c241d"></path><path d="m90 123.949h116v16h-116z" fill="#e7d1c4"></path><path d="m206 143.949h-116c-2.209 0-4-1.789-4-4v-16c0-2.211 1.791-4 4-4h116c2.211 0 4 1.789 4 4v16c0 2.211-1.789 4-4 4zm-112-8h108v-8h-108z" fill="#4c241d"></path><path d="m198 127.949c-2.211 0-4-1.789-4-4v-13.832l-9.184-5.984c-1.852-1.207-2.375-3.684-1.168-5.535 1.203-1.852 3.68-2.371 5.535-1.168l11 7.168c1.133.738 1.816 2 1.816 3.352v16c.001 2.21-1.788 3.999-3.999 3.999z" fill="#4c241d"></path><path d="m182 231.949h-68v-34c0-18.778 15.222-34 34-34 18.778 0 34 15.222 34 34z" fill="#fc8c29"></path><path d="m182 235.949h-68c-2.209 0-4-1.789-4-4v-34c0-20.953 17.047-38 38-38s38 17.047 38 38v34c0 2.211-1.789 4-4 4zm-64-8h60v-30c0-16.543-13.457-30-30-30s-30 13.457-30 30z" fill="#4c241d"></path><path d="m138 231.949h20v12h-20z" fill="#e7d1c4"></path><path d="m158 247.949h-20c-2.211 0-4-1.789-4-4v-12c0-2.211 1.789-4 4-4h20c2.211 0 4 1.789 4 4v12c0 2.211-1.789 4-4 4zm-16-8h12v-4h-12z" fill="#4c241d"></path><path d="m182 268.049h-68c0-13.31 10.79-24.1 24.1-24.1h19.8c13.31 0 24.1 10.79 24.1 24.1z" fill="#bd53b5"></path><path d="m182 272.051h-68c-2.209 0-4-1.789-4-4 0-15.496 12.605-28.102 28.102-28.102h19.797c15.496 0 28.102 12.605 28.102 28.102-.001 2.211-1.79 4-4.001 4zm-63.6-8h59.201c-1.859-9.176-9.988-16.102-19.703-16.102h-19.797c-9.714 0-17.841 6.926-19.701 16.102z" fill="#4c241d"></path><path d="m232 231.949c-14.359 0-26-11.641-26-26v-23.924h52v23.924c0 14.36-11.641 26-26 26z" fill="#e7d1c4"></path><path d="m232 235.949c-16.543 0-30-13.457-30-30v-23.926c0-2.211 1.789-4 4-4h52c2.211 0 4 1.789 4 4v23.926c0 16.543-13.457 30-30 30zm-22-49.926v19.926c0 12.129 9.871 22 22 22s22-9.871 22-22v-19.926z" fill="#4c241d"></path><path d="m270 268.049h-72c0-13.31 10.79-24.1 24.1-24.1h23.8c13.31 0 24.1 10.79 24.1 24.1z" fill="#a9ba5a"></path><path d="m270 272.051h-72c-2.211 0-4-1.789-4-4 0-15.496 12.605-28.102 28.102-28.102h23.797c15.496 0 28.102 12.605 28.102 28.102-.001 2.211-1.79 4-4.001 4zm-67.602-8h63.203c-1.859-9.176-9.988-16.102-19.703-16.102h-23.797c-9.714 0-17.843 6.926-19.703 16.102z" fill="#4c241d"></path><path d="m246 175.949v-.214c0-6.509-5.277-11.786-11.786-11.786h-13.248c-8.265 0-14.966 6.7-14.966 14.966v11.034c0 14.359 11.641 26 26 26 14.359 0 26-11.641 26-26v-4.379c0-5.314-4.308-9.621-9.621-9.621z" fill="#6b4f5b"></path><path d="m232 219.949c-16.543 0-30-13.457-30-30v-11.035c0-10.457 8.508-18.965 18.965-18.965h13.25c7.418 0 13.656 5.145 15.34 12.051 6.961.598 12.445 6.457 12.445 13.57v4.379c0 16.543-13.457 30-30 30zm-11.035-52c-6.047 0-10.965 4.918-10.965 10.965v11.035c0 12.129 9.871 22 22 22s22-9.871 22-22v-4.379c0-3.098-2.523-5.621-5.621-5.621h-2.379c-2.211 0-4-1.789-4-4v-.215c0-4.293-3.492-7.785-7.785-7.785z" fill="#4c241d"></path><path d="m222 231.949h24v12h-24z" fill="#e7d1c4"></path><path d="m246 247.949h-24c-2.211 0-4-1.789-4-4v-12c0-2.211 1.789-4 4-4h24c2.211 0 4 1.789 4 4v12c0 2.211-1.789 4-4 4zm-20-8h16v-4h-16z" fill="#4c241d"></path><path d="m64 231.949c-14.359 0-26-11.641-26-26v-23.924h52v23.924c0 14.36-11.641 26-26 26z" fill="#e7d1c4"></path><path d="m64 235.949c-16.543 0-30-13.457-30-30v-23.926c0-2.211 1.791-4 4-4h52c2.209 0 4 1.789 4 4v23.926c0 16.543-13.457 30-30 30zm-22-49.926v19.926c0 12.129 9.869 22 22 22s22-9.871 22-22v-19.926z" fill="#4c241d"></path><path d="m102 268.049h-72c0-13.31 10.79-24.1 24.1-24.1h23.8c13.31 0 24.1 10.79 24.1 24.1z" fill="#9dc1e4"></path><path d="m102 272.051h-72c-2.209 0-4-1.789-4-4 0-15.496 12.605-28.102 28.1-28.102h23.8c15.494 0 28.1 12.605 28.1 28.102 0 2.211-1.791 4-4 4zm-67.6-8h63.2c-1.859-9.176-9.986-16.102-19.699-16.102h-23.801c-9.713 0-17.84 6.926-19.7 16.102z" fill="#4c241d"></path><path d="m78 175.949v-.214c0-6.509-5.277-11.786-11.786-11.786h-13.248c-8.265 0-14.966 6.7-14.966 14.966v11.034c0 14.359 11.641 26 26 26 14.359 0 26-11.641 26-26v-4.379c0-5.314-4.308-9.621-9.621-9.621z" fill="#bf7e68"></path><path d="m64 219.949c-16.543 0-30-13.457-30-30v-11.035c0-10.457 8.508-18.965 18.965-18.965h13.25c7.418 0 13.656 5.145 15.338 12.051 6.963.598 12.447 6.457 12.447 13.57v4.379c0 16.543-13.457 30-30 30zm-11.035-52c-6.047 0-10.965 4.918-10.965 10.965v11.035c0 12.129 9.869 22 22 22s22-9.871 22-22v-4.379c0-3.098-2.521-5.621-5.621-5.621h-2.379c-2.209 0-4-1.789-4-4v-.215c0-4.293-3.492-7.785-7.785-7.785z" fill="#4c241d"></path><path d="m54 231.949h20v12h-20z" fill="#e7d1c4"></path><g fill="#4c241d"><path d="m74 247.949h-20c-2.209 0-4-1.789-4-4v-12c0-2.211 1.791-4 4-4h20c2.209 0 4 1.789 4 4v12c0 2.211-1.791 4-4 4zm-16-8h12v-4h-12z" fill="#4c241d"></path><path d="m216.746 60.863c-1.023 0-2.047-.391-2.828-1.172l-6.781-6.777c-1.562-1.559-1.562-4.094 0-5.656s4.094-1.562 5.656 0l6.781 6.777c1.562 1.559 1.562 4.094 0 5.656-.781.782-1.804 1.172-2.828 1.172z" fill="#4c241d"></path><path d="m232.562 76.68c-1.023 0-2.047-.391-2.828-1.172l-6.777-6.777c-1.562-1.562-1.562-4.094 0-5.656s4.094-1.562 5.656 0l6.777 6.777c1.562 1.562 1.562 4.094 0 5.656-.781.781-1.804 1.172-2.828 1.172z" fill="#4c241d"></path><path d="m209.16 77.484c-1.023 0-2.047-.391-2.828-1.172-1.562-1.562-1.562-4.094 0-5.656l6.836-6.832c1.562-1.562 4.094-1.562 5.656 0s1.562 4.098 0 5.656l-6.836 6.832c-.781.782-1.804 1.172-2.828 1.172z" fill="#4c241d"></path><path d="m225.785 60.863c-1.023 0-2.047-.391-2.828-1.172-1.562-1.562-1.562-4.094 0-5.656l6.777-6.777c1.562-1.562 4.094-1.562 5.656 0s1.562 4.094 0 5.656l-6.777 6.777c-.781.782-1.804 1.172-2.828 1.172z" fill="#4c241d"></path><path d="m46.047 71.324c-1.963 0-3.951-.469-5.799-1.457-2.906-1.555-5.033-4.148-5.99-7.301-.955-3.152-.627-6.492.928-9.398 3.211-6 10.703-8.266 16.699-5.059 2.906 1.555 5.033 4.148 5.99 7.301.955 3.152.627 6.492-.928 9.398-2.22 4.149-6.492 6.516-10.9 6.516zm-3.807-14.383c-.547 1.023-.662 2.195-.326 3.305s1.084 2.02 2.107 2.566c2.111 1.133 4.748.328 5.871-1.777.547-1.023.662-2.195.326-3.305s-1.084-2.02-2.107-2.566c-2.105-1.125-4.742-.324-5.871 1.777z" fill="#4c241d"></path><path d="m250.043 143.324c-1.961 0-3.949-.469-5.797-1.457-5.996-3.211-8.266-10.699-5.059-16.699 3.215-5.992 10.699-8.262 16.699-5.059 5.996 3.211 8.266 10.699 5.059 16.699-2.222 4.149-6.492 6.516-10.902 6.516zm-3.801-14.383c-1.129 2.109-.332 4.742 1.777 5.871 2.105 1.125 4.742.332 5.871-1.777s.332-4.742-1.777-5.871c-2.101-1.125-4.742-.328-5.871 1.777z" fill="#4c241d"></path><path d="m52.887 127.387c-1.023 0-2.047-.391-2.828-1.172l-11.793-11.793c-1.562-1.562-1.562-4.094 0-5.656s4.094-1.562 5.656 0l11.793 11.793c1.562 1.562 1.562 4.094 0 5.656-.781.781-1.805 1.172-2.828 1.172z" fill="#4c241d"></path><path d="m41.094 127.387c-1.023 0-2.047-.391-2.828-1.172-1.562-1.562-1.562-4.094 0-5.656l11.793-11.793c1.562-1.562 4.094-1.562 5.656 0s1.562 4.094 0 5.656l-11.793 11.793c-.781.781-1.805 1.172-2.828 1.172z" fill="#4c241d"></path></g></svg>